<?xml version="1.0" encoding="utf-8"?>
<!-- Generator: Adobe Illustrator 14.0.0, SVG Export Plug-In . SVG Version: 6.00 Build 43363)  -->
<!DOCTYPE svg PUBLIC "-//W3C//DTD SVG 1.1//EN" "http://www.w3.org/Graphics/SVG/1.1/DTD/svg11.dtd">
<svg version="1.1" id="Capa_1" xmlns="http://www.w3.org/2000/svg" xmlns:xlink="http://www.w3.org/1999/xlink" x="0px" y="0px"
	 width="211.42px" height="202.773px" viewBox="0 0 211.42 202.773" enable-background="new 0 0 211.42 202.773"
	 xml:space="preserve">
<g>
	<path fill="#E21019" d="M105.63,0.185C49.665,0.185,4.303,45.546,4.303,101.511c0,55.952,45.361,101.325,101.326,101.325
		c55.953,0,101.324-45.373,101.324-101.325C206.954,45.546,161.582,0.185,105.63,0.185z M41.095,39.365h15.826
		c0,0,5.338,2.783,0.353,8.09c-6.909-0.107-15.129,0-16.179,0C36.207,47.455,36.207,39.365,41.095,39.365z M56.922,59.411
		c3.747,0,3.582,7.739-0.352,7.739c-3.934,0-13.4,0-15.828,0c-4.184,0-4.57-7.739,0-7.739
		C45.081,59.411,53.172,59.411,56.922,59.411z M41.095,78.754c4.691,0.116,11.957,0,15.827,0c3.869,0,3.751,8.086,0,8.086
		c-2.888,0-13.408,0-16.178,0C36.173,86.841,36.406,78.635,41.095,78.754z M41.095,98.448c4.691,0,12.193-0.351,15.827-0.351
		c3.633,0,3.633,8.086,0.353,8.086c-2.459,0-13.078,0-16.179,0C36.641,106.182,36.406,98.448,41.095,98.448z M41.095,117.792
		c4.691,0,11.488,0,15.827,0c4.336,0,4.336,8.084,0,8.084c-3.211,0-12.911,0-15.827,0C36.29,125.876,36.406,117.792,41.095,117.792z
		 M41.095,137.49c4.572,0,11.723,0,15.827,0c4.104,0,4.219,8.084,0,8.084c-4.22,0-11.136,0-15.827,0
		C36.407,145.574,36.524,137.49,41.095,137.49z M41.095,157.179c3.512,0,13.064,0,15.827,0c4.336,0,4.219,8.091,0,8.091
		c-4.22,0-11.02,0-15.827,0C36.291,165.27,36.406,157.179,41.095,157.179z M167.704,170.192c0,0-4.572,11.606-12.661,11.606
		s-96.012,0-96.012,0s-10.55-3.515-10.55-13.011c5.239-0.066,8.44,0,8.44,0s5.584-2.096,5.627-6.688
		c0.215-2.84-0.121-7.742-5.627-8.086c-5.509-0.346-8.792,0-8.792,0l-0.352-5.271h10.551c0,0,4.876-2.075,4.22-7.389
		c-0.659-3.22-1.157-6.477-4.923-6.683c-3.77-0.201-9.497,0-9.497,0v-5.625l10.551-0.353c0,0,4.176-2.911,3.869-7.037
		c-0.31-2.379-0.979-6.79-4.573-6.682c-3.593,0.115-10.199,0-10.199,0v-5.623h8.441c0,0,5.94,0.1,6.331-6.684
		c-0.135-2.773-1.516-7.463-5.627-7.389c-4.111,0.08-9.145,0-9.145,0v-5.624h9.145c0,0,5.936-1.785,5.627-6.682
		c-0.309-3.155-0.809-6.374-4.923-7.036c-4.118-0.657-9.496-0.701-9.496-0.701l-0.353-5.275l9.497,0.352
		c0,0,5.233-1.226,5.275-7.036c-0.135-2.665-0.45-6.688-4.22-7.032c-3.772-0.344-10.199-0.705-10.199-0.705l-0.353-4.922h9.145
		c0,0,6.634-2.237,5.627-6.682c0.042-2.178-0.45-5.785-4.22-7.386C55.08,36.521,48.13,36.2,48.13,36.2S47.426,22.839,62.9,21.431
		c16.879,0.351,91.79,0.351,91.79,0.351s11.605,0.349,13.013,13.011C167.353,49.564,167.704,170.192,167.704,170.192z"/>
	<path fill="#E21019" d="M86.22,58.048c0-5.58-5.85-5.926-5.85-5.926l-10.191,0.011l0.001,19.479h2.339v-7.215l7.852-0.066
		C80.37,64.33,86.22,63.63,86.22,58.048z M72.552,61.932l0.05-7.442c0.001,0,6.246-0.03,7.767-0.03
		c1.748-0.027,3.556,1.588,3.556,3.593c0,2.004-1.375,3.854-3.606,3.854C78.092,61.907,72.552,61.932,72.552,61.932z"/>
	<path fill="#E21019" d="M120.278,68.89c0,0.345,0,2.688,0,2.688h1.959v-5.594l1.535-1.386l7.117,6.988l2.806-0.008l-8.522-8.293
		l8.489-8.275l-2.833-0.007l-8.579,8.39l0.021-8.371h-2.044c0,0,0.091,12.616-0.085,9.542c-0.761,6.575-12.312,7.772-12.703-1.444
		c0.562-6.814,7.051-6.334,7.051-6.334l1.649-1.723c-8.789-1.604-10.965,5.807-10.879,8.328
		C104.771,69.946,114.438,75.332,120.278,68.89z"/>
	<path fill="#E21019" d="M95.307,71.941c4.749,0,8.598-3.85,8.598-8.601c0-4.748-3.849-8.597-8.598-8.597
		c-4.75,0-8.601,3.85-8.601,8.597C86.706,68.091,90.556,71.941,95.307,71.941z M95.187,56.865c3.576,0,6.471,2.9,6.471,6.475
		c0,3.575-2.895,6.475-6.471,6.475c-3.58,0-6.476-2.899-6.476-6.475C88.711,59.765,91.607,56.865,95.187,56.865z"/>
	<polygon fill="#E21019" points="145.18,69.547 137.931,69.547 137.931,64.164 145.062,64.164 145.062,62.386 137.906,62.386 
		137.906,56.773 145.146,56.773 145.146,55.058 135.931,55.058 135.931,71.553 145.18,71.553 	"/>
	<polygon fill="#E21019" points="146.955,56.746 151.508,56.746 151.508,71.523 153.569,71.523 153.569,56.75 158.295,56.751 
		158.295,54.998 146.955,54.998 	"/>
	<path fill="#E21019" d="M85.272,74.982l-10.193,0.01l0.002,19.479h2.339v-7.215l7.852-0.063c0,0,5.845-0.705,5.845-6.284
		C91.118,75.327,85.272,74.982,85.272,74.982z M85.22,84.767c-2.232,0-7.767,0.026-7.767,0.026l0.052-7.444
		c0,0,6.244-0.028,7.768-0.028c1.749-0.025,3.551,1.587,3.551,3.592C88.823,82.917,87.451,84.767,85.22,84.767z"/>
	<polygon fill="#E21019" points="103.476,85.22 94.137,85.22 94.137,77.87 92.189,77.87 92.189,94.459 94.12,94.459 94.12,87.019 
		103.476,87.019 103.476,94.459 105.596,94.459 105.596,77.866 103.476,77.87 	"/>
	<path fill="#E21019" d="M115.321,77.561c-4.731,0-8.558,3.875-8.558,8.659s3.826,8.661,8.558,8.661
		c4.727,0,8.558-3.877,8.557-8.661C123.878,81.435,120.047,77.561,115.321,77.561z M115.423,92.555c-3.568,0-6.459-2.89-6.459-6.456
		c0-3.564,2.891-6.453,6.459-6.453c3.562,0,6.455,2.889,6.455,6.453C121.878,89.666,118.984,92.555,115.423,92.555z"/>
	<polygon fill="#E21019" points="136.631,90.631 127.207,77.761 125.12,77.761 125.12,94.52 127.128,94.52 127.128,81.491 
		136.671,94.4 138.675,94.4 138.675,77.8 136.631,77.8 	"/>
	<polygon fill="#E21019" points="142.433,87.019 149.563,87.019 149.563,85.246 142.402,85.246 142.402,79.635 149.648,79.635 
		149.648,77.916 140.426,77.916 140.426,94.411 149.677,94.411 149.677,92.404 142.433,92.404 	"/>
</g>
</svg>
