<?xml version="1.0" encoding="utf-8"?>
<!-- Generator: Adobe Illustrator 14.0.0, SVG Export Plug-In . SVG Version: 6.00 Build 43363)  -->
<!DOCTYPE svg PUBLIC "-//W3C//DTD SVG 1.1//EN" "http://www.w3.org/Graphics/SVG/1.1/DTD/svg11.dtd">
<svg version="1.1" id="Capa_1" xmlns="http://www.w3.org/2000/svg" xmlns:xlink="http://www.w3.org/1999/xlink" x="0px" y="0px"
	 width="211.42px" height="202.773px" viewBox="0 0 211.42 202.773" enable-background="new 0 0 211.42 202.773"
	 xml:space="preserve">
<g>
	<path fill="#E21019" d="M105.497,0.048C49.525,0.048,4.158,45.415,4.158,101.387c0,55.958,45.367,101.338,101.339,101.338
		c55.958,0,101.339-45.381,101.339-101.338C206.836,45.415,161.455,0.048,105.497,0.048z M112.939,41.176h17.8
		c0.892,0,1.616,0.725,1.616,1.617c0,0.895-0.725,1.619-1.616,1.619h-17.8c-0.895,0-1.619-0.724-1.619-1.619
		C111.32,41.9,112.045,41.176,112.939,41.176z M93.877,47.879h34.663c0.829,0,1.502,0.671,1.502,1.501
		c0,0.831-0.673,1.502-1.502,1.502H93.877c-0.831,0-1.503-0.672-1.503-1.502C92.374,48.551,93.046,47.879,93.877,47.879z
		 M73.773,54.349h52.683c0.834,0,1.504,0.672,1.504,1.5c0,0.83-0.67,1.502-1.504,1.502H73.773c-0.829,0-1.501-0.672-1.501-1.502
		C72.272,55.021,72.945,54.349,73.773,54.349z M67.65,142.856H49.854c-0.894,0-1.617-0.724-1.617-1.617s0.724-1.615,1.617-1.615
		H67.65c0.894,0,1.617,0.722,1.617,1.615S68.544,142.856,67.65,142.856z M69.844,136.154H35.18c-0.83,0-1.501-0.674-1.501-1.502
		c0-0.827,0.672-1.502,1.501-1.502h34.665c0.828,0,1.501,0.674,1.501,1.502S70.673,136.154,69.844,136.154z M72.388,129.68H19.699
		c-0.832,0-1.503-0.673-1.503-1.503c0-0.827,0.67-1.501,1.503-1.501h52.688c0.83,0,1.502,0.674,1.502,1.501
		C73.89,129.008,73.218,129.68,72.388,129.68z M174.413,162.958c-1.54,0.944-13.319,7.423-19.641-7.159
		c-2.432,1.565-2.544,1.62-2.544,1.62s-2.327-3.222-2.078-8.326c-5.465-0.079-23.345,0-23.345,0s-0.247,1.7-2.076,1.852
		c-1.83,0.152-8.552,0.233-8.552,0.233l-6.009,1.851c0,0-0.407,4.577-1.384,5.08c-1.607-0.815-2.085-0.923-2.085-0.923h-0.453
		c0,0-5.565,13.447-19.646,5.317c-1.554-1.449-8.056-7.122-2.544-16.641c-2.071-1.1-2.311-1.392-2.311-1.392
		s9.069-15.804,24.036-3.924c0.076-1.977,0.074-4.46-0.698-4.855c-0.763-0.395-18.483-4.155-18.483-4.155s-2.24-0.679-1.619-3.471
		c-2.719-0.141-3.208-0.834-7.626,0.7c-0.661-1.675-1.154-2.318-1.154-2.318s4.352-2.07,9.242-0.919
		c0.717-0.942,0.998-2.366,4.161-1.619c3.164,0.745,10.632,2.537,10.632,2.537s-0.87-4.371-11.787-5.308
		c0.283-2.609,0.462-5.09,0.462-5.09H67.186v-2.082h4.16v-1.84l-21.492-0.233l-0.23-51.767l60.312-0.228l0.466,48.292h4.855
		c0,0-7.688-4.948-0.933-20.792c-1.302-1.027-1.618-1.618-1.618-1.618s7.32-13.285,13.181-17.796
		c2.301-3.118,6.469-8.085,6.469-8.085l2.775,0.922l0.455-0.462c0,0-2.971-16.097,6.47-18.948
		c1.515-0.347,14.961-4.801,18.256,8.318c0.101,0.871,0.467,1.85,0.467,1.85l4.624,0.924l0.919,1.387l-8.312,0.229l-0.233,1.619
		l4.155,6.932l-2.771,0.927l-0.233,1.847l-1.151,1.389l0.688,0.922l-1.844,1.85l-4.619-1.156l-0.233,0.695l-2.317,0.694
		l-0.227-1.618c0,0-1.249-1.055-4.395-0.465c0.34,1.5,1.954,4.37-2.537,12.02c5.177,1.659,9.244,3.697,9.244,3.697h1.385
		l1.152,0.229l0.932,0.695h0.919c0,0,1.732,1.643-0.232,2.539c-0.011,0.83-0.231,1.851-0.231,1.851s2.987,2.625,3.237,5.083
		c0.67,0.093,0.697,0.233,0.697,0.233s0.701-3.265,4.622-3.93c0.154,0.932,0,1.155,0,1.155s2.529-0.082,2.771,2.775
		c0.241,2.85,0.233,4.622,0.233,4.622s-0.055,2.14-2.775,3.003c-0.002,0.931,0,0.926,0,0.926s-1.213,0.503-2.313-0.233
		c1.542,7.616,6.24,30.27,6.24,30.27l-3.927,1.387l0.23,0.467c0,0,9.549-0.844,13.636,7.159c-2.456,1.394-2.777,1.618-2.777,1.618
		S185.906,152.623,174.413,162.958z"/>
	<path fill="#E21019" d="M157.309,100.337c-0.944-8.097-3.022-8.746-3.693-9.014c-1.302,0.36-2.547-0.924-2.547-0.924l-0.92-0.233
		l-0.699-2.078h-1.152l-1.617,6.007l-12.711-2.079c0,0-0.001-0.01-3.462,6.466c12.053-0.966,13.168,4.624,13.168,4.624l5.548,32.58
		h-4.622l0.228,1.852c0,0-0.07,0.195,4.166,0.234c3.54-8.389,8.081-11.561,8.081-11.561l-1.843-25.876
		C155.233,100.337,155.402,100.287,157.309,100.337z"/>
	<path fill="#E21019" d="M165.635,98.949c0,0,0.133-2.976,0-4.392c-0.149-1.417-1.619-1.844-1.619-1.844s0.015,7.437,0.229,7.392
		C164.459,100.059,165.635,98.949,165.635,98.949z"/>
	<path fill="#E21019" d="M172.33,145.165l-3.351,2.236c0.118,0.052,0.3,0.145,0.577,0.302c1.147,0.656,1.779,1.583,2.315,2.316
		c2.128,5.321-1.504,7.341-3.005,8.089c-7.765,1.095-7.626-6.012-7.626-6.012s0.006-0.027-3.232,2.08
		c4.197,11.85,14.029,6.452,15.252,5.318C180.117,150.978,172.33,145.165,172.33,145.165z"/>
	<path fill="#E21019" d="M168.867,147.476l0.112-0.075C168.614,147.24,168.867,147.476,168.867,147.476z"/>
	<path fill="#E21019" d="M166.786,150.707c0,0,0.058,0.001,0.146,0.011C167.131,150.628,166.786,150.707,166.786,150.707z"/>
	<path fill="#E21019" d="M168.637,153.713c0.537-2.571-1.187-2.941-1.705-2.995c-0.084,0.037-0.257,0.103-0.612,0.223
		c-1.183,0.405-1.242,1.203-1.153,2.547C166.371,155.526,168.066,154.435,168.637,153.713z"/>
	<path fill="#E21019" d="M90.294,156.719c-3.515-4.257,0-7.854,0-7.854l-3.003-1.615c0,0,0.326-0.396-0.46,0.454
		c-0.792,0.862-1.647,3.326-1.388,6.939c0.257,3.611,3.843,5.78,5.776,6.695c8.961,2.872,11.789-6.009,11.789-6.009
		s-0.081-0.061-3.005-1.617C96.723,161.064,91.167,157.433,90.294,156.719z"/>
	<path fill="#E21019" d="M94.223,154.642c2.08,0.128,2.077-2.773,2.077-2.773l-2.31-1.162c0,0-0.012,0.016-0.227,0.233
		c-0.637,0.085-0.959,0.817-1.16,1.386C92.026,153.984,93.461,154.435,94.223,154.642z"/>
	<polygon fill="#E21019" points="78.046,113.965 94.916,114.197 100.924,113.277 100.924,112.126 78.046,112.126 	"/>
	<path fill="#E21019" d="M131.427,109.121c-0.915-1.462-2.771-0.698-2.771-0.698l0.693,1.383l0.691,0.931l-0.233,2.307v1.852
		l-0.232,1.619l1.619,1.62l-3.234,9.243l2.314,18.257c0,0,0.688-0.067,5.543,0.229c0.047-2.62,2.316-1.848,2.316-1.848
		l-6.239-33.741C131.894,110.273,131.847,110.068,131.427,109.121z"/>
	<path fill="#E21019" d="M151.301,56.891c0.65,0.682,2.599,0.842,3.933,0.922c0.816-0.541,0.922-2.079,0.922-2.079h-0.695
		c0,0,0.03,0.528-0.227,0.925c-0.261,0.399-0.254,0.399-0.694,0.462c-0.44,0.067-0.24-0.83,0-1.387
		c-2.422-0.301-3.47,0.925-3.47,0.925S151.135,56.752,151.301,56.891z"/>
</g>
</svg>
