<?xml version="1.0" encoding="utf-8"?>
<!-- Generator: Adobe Illustrator 14.0.0, SVG Export Plug-In . SVG Version: 6.00 Build 43363)  -->
<!DOCTYPE svg PUBLIC "-//W3C//DTD SVG 1.1//EN" "http://www.w3.org/Graphics/SVG/1.1/DTD/svg11.dtd">
<svg version="1.1" id="Capa_1" xmlns="http://www.w3.org/2000/svg" xmlns:xlink="http://www.w3.org/1999/xlink" x="0px" y="0px"
	 width="211.42px" height="202.773px" viewBox="0 0 211.42 202.773" enable-background="new 0 0 211.42 202.773"
	 xml:space="preserve">
<g>
	<path fill="#E20D19" d="M105.497,0.048C49.525,0.048,4.158,45.415,4.158,101.387c0,55.958,45.367,101.338,101.339,101.338
		c55.958,0,101.339-45.381,101.339-101.338C206.836,45.415,161.455,0.048,105.497,0.048z M80.198,177.986
		c-26.037-22.146-41.952-32.475-47.138-51.854c-5.188-19.375-9.612-39.819,14.142-51.851l23.57,32.997
		c0,0-25.368,11.802-9.429,28.283c15.938,16.483,18.855,18.857,18.855,18.857s16.559,0.691,18.856-14.143
		c16.232,10.183,32.995,23.569,32.995,23.569S116.688,193.16,80.198,177.986z M127.338,121.418c-8.066,0-15.696-1.759-22.507-4.89
		c-4.212-0.578-19.919,4.89-19.919,4.89s10.862-10.673,5.148-15.089c-9.021-8.907-14.575-21.039-14.575-34.407
		c0-27.334,23.217-49.494,51.853-49.494c28.637,0,51.853,22.159,51.853,49.494C179.19,99.258,155.974,121.418,127.338,121.418z"/>
	<path fill="#E20D19" d="M132.05,41.283c-9.79,8.781-23.337,17.478-28.28,42.426c-1.782,10.375,5.357,17.833,14.143,18.854
		c-9.271-18.297,4.714-18.854,4.714-18.854s1.373,4.946,4.712,4.714c9.919-0.696,0-23.571,0-23.571s28.153,21.557,4.712,37.71
		c0,0,29.208-0.511,14.143-32.997C138.097,57.663,128.222,45.485,132.05,41.283z"/>
</g>
</svg>
