<?xml version="1.0" encoding="utf-8"?>
<!-- Generator: Adobe Illustrator 14.0.0, SVG Export Plug-In . SVG Version: 6.00 Build 43363)  -->
<!DOCTYPE svg PUBLIC "-//W3C//DTD SVG 1.1//EN" "http://www.w3.org/Graphics/SVG/1.1/DTD/svg11.dtd">
<svg version="1.1" id="Capa_1" xmlns="http://www.w3.org/2000/svg" xmlns:xlink="http://www.w3.org/1999/xlink" x="0px" y="0px"
	 width="166.445px" height="141.73px" viewBox="0 0 166.445 141.73" enable-background="new 0 0 166.445 141.73"
	 xml:space="preserve">
<image display="none" overflow="visible" width="540" height="960" xlink:href="../../../../../../Users/ruludos/Downloads/LAYOUT-PUSH.jpg"  transform="matrix(1 0 0 1 -123.3062 -467.2288)">
</image>
<path fill="#961B19" d="M76.03,3.606c48.078,0,71.519,39.066,71.519,74.52c0,27.046-20.136,45.075-20.136,45.075l7.212,19.832
	l-27.945-7.212c0,0-1.805,7.212-30.65,7.212c-28.846,0-69.411-21.185-69.411-69.714C5.718,28.999,49.889,3.606,76.03,3.606z"/>
<path fill="#EE0000" d="M72.424,0c48.078,0,71.519,39.066,71.519,74.521c0,27.046-20.136,45.075-20.136,45.075l7.212,19.832
	l-27.945-7.212c0,0-1.805,7.212-30.65,7.212S3.013,118.243,3.013,69.714C2.112,25.394,46.283,0,72.424,0z"/>
<path fill="#FFFFFF" d="M70.632,100.545H35.636c-6.056,0-9.809-6.539-6.782-11.807l17.499-30.335l17.498-30.334
	c3.028-5.268,10.596-5.268,13.623,0l17.498,30.334l17.5,30.335c3.026,5.268-0.727,11.807-6.781,11.807H70.632z"/>
<g>
	<circle fill="#BF2117" cx="70.027" cy="83.894" r="4.965"/>
	<path fill="#BF2117" d="M75.84,50.896c0-3.089-2.482-5.571-5.571-5.571c-3.572,0-6.115,3.451-5.388,6.902
		c0.121,0.546,0.242,1.03,0.363,1.575c0.183,0.788,0.304,1.574,0.485,2.361c0.484,2.362,0.968,4.723,1.454,7.084
		c0.484,2.422,0.968,4.844,1.453,7.266c0.241,1.211,0.483,2.482,0.727,3.693c0,0,0,0,0,0.062h1.876c0,0,1.878-11.504,3.088-16.409
		c0.302-1.271,0.667-2.604,0.968-3.875C75.537,52.893,75.84,51.864,75.84,50.896z"/>
</g>
</svg>
