<?xml version="1.0" encoding="utf-8"?>
<!-- Generator: Adobe Illustrator 14.0.0, SVG Export Plug-In . SVG Version: 6.00 Build 43363)  -->
<!DOCTYPE svg PUBLIC "-//W3C//DTD SVG 1.1//EN" "http://www.w3.org/Graphics/SVG/1.1/DTD/svg11.dtd">
<svg version="1.1" xmlns="http://www.w3.org/2000/svg" xmlns:xlink="http://www.w3.org/1999/xlink" x="0px" y="0px" width="960px"
	 height="227px" viewBox="0 0 960 227" enable-background="new 0 0 960 227" xml:space="preserve">
<g id="P_1_" enable-background="new    ">
	<g id="P">
		<g>
			<path fill-rule="evenodd" clip-rule="evenodd" fill="#FFFFFF" d="M116,70.938L65.156,71l0.01,97.167h11.667v-36L116,131.833
				c0,0,29.167-3.5,29.167-31.333S116,70.938,116,70.938z M115.75,119.75c-11.125,0-38.75,0.125-38.75,0.125l0.25-37.125
				c0,0,31.15-0.15,38.75-0.15c8.725-0.125,17.725,7.926,17.725,17.926S126.875,119.75,115.75,119.75z"/>
		</g>
	</g>
</g>
<g id="ock_1_" enable-background="new    ">
	<g id="ock">
		<g>
			<path fill-rule="evenodd" clip-rule="evenodd" fill="#FFFFFF" d="M190.5,84c-23.693,0-42.9,19.207-42.9,42.9
				c0,23.692,19.207,42.899,42.9,42.899s42.9-19.207,42.9-42.899C233.4,103.207,214.193,84,190.5,84z M189.9,159.2
				c-17.839,0-32.3-14.461-32.3-32.3S172.061,94.6,189.9,94.6s32.3,14.462,32.3,32.301S207.739,159.2,189.9,159.2z M339.5,126.625
				l42.334-41.292l-14.125-0.031l-42.792,41.865L325,85.4H314.8c0,0,0.451,62.934-0.4,47.6c-3.8,32.8-61.447,38.759-63.4-7.2
				c2.8-34,35.2-31.6,35.2-31.6l8.2-8.601c-43.857-8-54.686,28.972-54.257,41.543c-2.429,32.715,45.797,59.584,74.94,27.44
				c0,1.715,0,13.417,0,13.417h9.75v-27.917l7.666-6.916l35.5,34.864L382,168L339.5,126.625z"/>
		</g>
	</g>
</g>
<g id="e_3_" enable-background="new    ">
	<g id="e">
		<g>
			<polygon fill-rule="evenodd" clip-rule="evenodd" fill="#FFFFFF" points="403.143,157.857 403.143,131 438.714,131 
				438.714,122.143 403,122.143 403,94.143 439.143,94.143 439.143,85.571 393.143,85.571 393.143,167.857 439.286,167.857 
				439.286,157.857 			"/>
		</g>
	</g>
</g>
<g id="t_1_" enable-background="new    ">
	<g id="t">
		<g>
			<polygon fill-rule="evenodd" clip-rule="evenodd" fill="#FFFFFF" points="448.143,85.286 448.143,94 470.857,94 470.857,167.714 
				481.143,167.714 481.143,94.022 504.714,94.031 504.714,85.286 			"/>
		</g>
	</g>
</g>
<g id="P_copia_1_" enable-background="new    ">
	<g id="P_copia">
		<g>
			<path fill-rule="evenodd" clip-rule="evenodd" fill="#FFFFFF" d="M565,70.938L514.156,71l0.011,97.167h11.667v-36L565,131.833
				c0,0,29.167-3.5,29.167-31.333S565,70.938,565,70.938z M564.75,119.75c-11.125,0-38.75,0.125-38.75,0.125l0.25-37.125
				c0,0,31.15-0.15,38.75-0.15c8.726-0.125,17.726,7.926,17.726,17.926S575.875,119.75,564.75,119.75z"/>
		</g>
	</g>
</g>
<g id="h_1_" enable-background="new    ">
	<g id="h">
		<g>
			<polygon fill-rule="evenodd" clip-rule="evenodd" fill="#FFFFFF" points="655.812,85.344 655.812,122 609.218,122 
				609.218,85.344 599.5,85.344 599.5,168.094 609.156,168.094 609.156,131 655.812,131 655.812,168.094 666.4,168.094 
				666.4,85.325 			"/>
		</g>
	</g>
</g>
<g id="o_1_" enable-background="new    ">
	<g id="o">
		<g>
			<path fill-rule="evenodd" clip-rule="evenodd" fill="#FFFFFF" d="M714.9,83.8c-23.582,0-42.7,19.342-42.7,43.2
				s19.118,43.2,42.7,43.2c23.583,0,42.7-19.342,42.7-43.2S738.483,83.8,714.9,83.8z M715.4,158.6
				c-17.783,0-32.2-14.416-32.2-32.199c0-17.784,14.417-32.2,32.2-32.2s32.2,14.416,32.2,32.2
				C747.6,144.184,733.183,158.6,715.4,158.6z"/>
		</g>
	</g>
</g>
<g id="n_1_" enable-background="new    ">
	<g id="n">
		<g>
			<polygon fill-rule="evenodd" clip-rule="evenodd" fill="#FFFFFF" points="821.2,85 821.2,149 774.2,84.8 763.8,84.8 763.8,168.4 
				773.8,168.4 773.8,103.4 821.4,167.8 831.4,167.8 831.4,85 			"/>
		</g>
	</g>
</g>
<g id="e_2_" enable-background="new    ">
	<g id="e_1_">
		<g>
			<polygon fill-rule="evenodd" clip-rule="evenodd" fill="#FFFFFF" points="850.143,157.857 850.143,131 885.714,131 
				885.714,122.143 850,122.143 850,94.143 886.143,94.143 886.143,85.571 840.143,85.571 840.143,167.857 886.286,167.857 
				886.286,157.857 			"/>
		</g>
	</g>
</g>
</svg>
