<?xml version="1.0" encoding="utf-8"?>
<!-- Generator: Adobe Illustrator 14.0.0, SVG Export Plug-In . SVG Version: 6.00 Build 43363)  -->
<!DOCTYPE svg PUBLIC "-//W3C//DTD SVG 1.1//EN" "http://www.w3.org/Graphics/SVG/1.1/DTD/svg11.dtd">
<svg version="1.1" id="Capa_1" xmlns="http://www.w3.org/2000/svg" xmlns:xlink="http://www.w3.org/1999/xlink" x="0px" y="0px"
	 width="211.42px" height="202.773px" viewBox="0 0 211.42 202.773" enable-background="new 0 0 211.42 202.773"
	 xml:space="preserve">
<g>
	<path fill="#E21019" d="M105.497,0.048C49.525,0.048,4.158,45.415,4.158,101.387c0,55.958,45.367,101.338,101.339,101.338
		c55.958,0,101.339-45.381,101.339-101.338C206.836,45.415,161.455,0.048,105.497,0.048z M105.851,192.121
		c0,0-62.287-66.4-61.068-114.827c1.219-48.428,40.508-61.526,62.744-61.526c22.234,0,57.261,18.579,59.089,61.526
		C168.443,120.242,105.851,192.121,105.851,192.121z"/>
	<path fill="#E21019" d="M104.482,54.755c-14.012,0-20.712,14.619-20.712,22.539c0,7.92,7.005,22.539,20.712,22.539
		c13.706,0,23.454-10.051,23.454-21.321C127.935,67.243,121.538,54.755,104.482,54.755z"/>
</g>
</svg>
