<?xml version="1.0" encoding="utf-8"?>
<!-- Generator: Adobe Illustrator 14.0.0, SVG Export Plug-In . SVG Version: 6.00 Build 43363)  -->
<!DOCTYPE svg PUBLIC "-//W3C//DTD SVG 1.1//EN" "http://www.w3.org/Graphics/SVG/1.1/DTD/svg11.dtd">
<svg version="1.1" id="Capa_1" xmlns="http://www.w3.org/2000/svg" xmlns:xlink="http://www.w3.org/1999/xlink" x="0px" y="0px"
	 width="211.42px" height="202.773px" viewBox="0 0 211.42 202.773" enable-background="new 0 0 211.42 202.773"
	 xml:space="preserve">
<g>
	<path fill="#E21019" d="M106.164-0.092C50.122-0.092,4.697,45.334,4.697,101.377c0,56.028,45.425,101.464,101.467,101.464
		c56.03,0,101.466-45.436,101.466-101.464C207.63,45.334,162.194-0.092,106.164-0.092z M128.241,181.496c0,0-10.591,9.023-19.227,0
		c-8.635-9.023-72.198-73.768-72.198-73.768V46.124c0,0,1.766-11.771,13.146-11.771c11.378,0,60.82,0,60.82,0l72.782,74.552
		c0,0,7.849,8.239,0,16.875C175.72,134.411,128.241,181.496,128.241,181.496z"/>
	<path fill="#E21019" d="M73.96,60.379c0-3.136-0.913-11.246-11.377-11.246c-9.81,0-10.726,8.892-10.726,11.184
		c0,2.287,1.57,11.182,10.726,11.182C71.737,71.499,73.96,63.519,73.96,60.379z"/>
	<path fill="#E21019" d="M89.765,85.376c-0.76-4.214-1.082-6.609,1.49-9.179c1.768-1.765,4.888-2.475,7.451,0.091
		c1.361,1.358,2.025,2.869,2.223,3.99l3.273-1.792c-0.199-1.045-1.101-3.02-2.731-4.652c-4.115-4.119-9.787-4.042-13.702-0.131
		c-3.34,3.336-2.888,8.625-2.248,12.106c0.521,3.594,0.462,6.45-1.918,8.828c-2.61,2.607-6.007,2.738-8.725,0.017
		c-1.32-1.323-2.374-3.375-2.731-4.806l-3.156,1.832c0.162,1.313,1.491,3.793,3.277,5.581c4.152,4.16,10.14,4.548,14.593,0.1
		C89.741,94.486,90.723,90.71,89.765,85.376z"/>
	<path fill="#E21019" d="M113.706,86.541l-31.854,19.857l2.914,2.916l9.459-6.035l5.824,5.83l-6.043,9.455l2.953,2.955
		l20.045-31.673L113.706,86.541z M107.21,98.388l-5.204,7.917l-4.969-4.974l7.882-5.159c2.154-1.375,4.77-3.211,7.036-4.855
		l0.12,0.116C110.464,93.661,108.661,96.159,107.21,98.388z"/>
	<polygon fill="#E21019" points="129.08,101.933 126.091,98.938 100.216,124.783 110.544,135.12 113.042,132.629 105.7,125.281 	"/>
	<polygon fill="#E21019" points="113.566,138.153 124.019,148.607 126.588,146.038 119.133,138.575 128.841,128.878 
		135.407,135.444 137.897,132.949 131.339,126.383 139.86,117.869 146.849,124.865 149.426,122.299 139.444,112.308 	"/>
</g>
</svg>
